STARTFONT 2.1
COMMENT  
COMMENT  Public domain font.  Share and enjoy.
COMMENT  
COMMENT  WARNING:  This bdf file was generated from a font server using
COMMENT  fstobdf.  The resulting font is subject to the same copyright,
COMMENT  license, and trademark restrictions as the original font.  The
COMMENT  authors and distributors of fstobdf disclaim all liability for
COMMENT  misuse of the program or its output.
COMMENT  
FONT -Misc-Fixed-Medium-R-Normal--14-130-75-75-C-70-ISO8859-1
SIZE 13 75 75
FONTBOUNDINGBOX 7 14 0 -2
STARTPROPERTIES 25
FONTNAME_REGISTRY ""
FOUNDRY "Misc"
FAMILY_NAME "Fixed"
WEIGHT_NAME "Medium"
SLANT "R"
SETWIDTH_NAME "Normal"
ADD_STYLE_NAME ""
PIXEL_SIZE 14
POINT_SIZE 130
RESOLUTION_X 75
RESOLUTION_Y 75
SPACING "C"
AVERAGE_WIDTH 70
CHARSET_REGISTRY "ISO8859"
CHARSET_ENCODING "1"
COPYRIGHT "Public domain font.  Share and enjoy."
CAP_HEIGHT 10
X_HEIGHT 7
FONT "-Misc-Fixed-Medium-R-Normal--14-130-75-75-C-70-ISO8859-1"
WEIGHT 10
RESOLUTION 103
QUAD_WIDTH 7
DEFAULT_CHAR 0
FONT_ASCENT 12
FONT_DESCENT 2
ENDPROPERTIES
CHARS 223
STARTCHAR C000
ENCODING 0
SWIDTH 516 0
DWIDTH 7 0
BBX 6 11 0 0
BITMAP
b4
84
00
84
84
00
84
84
00
84
b4
ENDCHAR
STARTCHAR C001
ENCODING 1
SWIDTH 516 0
DWIDTH 7 0
BBX 6 10 0 0
BITMAP
30
30
78
78
fc
fc
78
78
30
30
ENDCHAR
STARTCHAR C002
ENCODING 2
SWIDTH 516 0
DWIDTH 7 0
BBX 7 14 0 -2
BITMAP
54
aa
54
aa
54
aa
54
aa
54
aa
54
aa
54
aa
ENDCHAR
STARTCHAR C003
ENCODING 3
SWIDTH 516 0
DWIDTH 7 0
BBX 6 11 0 0
BITMAP
90
90
f0
90
90
00
7c
10
10
10
10
ENDCHAR
STARTCHAR C004
ENCODING 4
SWIDTH 516 0
DWIDTH 7 0
BBX 6 12 0 -1
BITMAP
e0
80
80
e0
80
9c
90
10
1c
10
10
10
ENDCHAR
STARTCHAR C005
ENCODING 5
SWIDTH 516 0
DWIDTH 7 0
BBX 6 12 0 -1
BITMAP
70
80
80
80
70
00
38
24
24
38
24
24
ENDCHAR
STARTCHAR C006
ENCODING 6
SWIDTH 516 0
DWIDTH 7 0
BBX 6 11 0 0
BITMAP
80
80
80
80
f0
00
3c
20
38
20
20
ENDCHAR
STARTCHAR C007
ENCODING 7
SWIDTH 516 0
DWIDTH 7 0
BBX 4 4 1 7
BITMAP
60
90
90
60
ENDCHAR
STARTCHAR C010
ENCODING 8
SWIDTH 516 0
DWIDTH 7 0
BBX 5 6 1 0
BITMAP
20
20
f8
20
20
f8
ENDCHAR
STARTCHAR C011
ENCODING 9
SWIDTH 516 0
DWIDTH 7 0
BBX 6 10 0 0
BITMAP
90
d0
b0
90
90
20
20
20
20
3c
ENDCHAR
STARTCHAR C012
ENCODING 10
SWIDTH 516 0
DWIDTH 7 0
BBX 6 12 0 -1
BITMAP
88
88
88
50
20
00
7c
10
10
10
10
10
ENDCHAR
STARTCHAR C013
ENCODING 11
SWIDTH 516 0
DWIDTH 7 0
BBX 4 8 0 4
BITMAP
10
10
10
10
10
10
10
f0
ENDCHAR
STARTCHAR C014
ENCODING 12
SWIDTH 516 0
DWIDTH 7 0
BBX 4 7 0 -2
BITMAP
f0
10
10
10
10
10
10
ENDCHAR
STARTCHAR C015
ENCODING 13
SWIDTH 516 0
DWIDTH 7 0
BBX 4 7 3 -2
BITMAP
f0
80
80
80
80
80
80
ENDCHAR
STARTCHAR C016
ENCODING 14
SWIDTH 516 0
DWIDTH 7 0
BBX 4 8 3 4
BITMAP
80
80
80
80
80
80
80
f0
ENDCHAR
STARTCHAR C017
ENCODING 15
SWIDTH 516 0
DWIDTH 7 0
BBX 7 14 0 -2
BITMAP
10
10
10
10
10
10
10
fe
10
10
10
10
10
10
ENDCHAR
STARTCHAR C020
ENCODING 16
SWIDTH 516 0
DWIDTH 7 0
BBX 7 1 0 11
BITMAP
fe
ENDCHAR
STARTCHAR C021
ENCODING 17
SWIDTH 516 0
DWIDTH 7 0
BBX 7 1 0 8
BITMAP
fe
ENDCHAR
STARTCHAR C022
ENCODING 18
SWIDTH 516 0
DWIDTH 7 0
BBX 7 1 0 4
BITMAP
fe
ENDCHAR
STARTCHAR C023
ENCODING 19
SWIDTH 516 0
DWIDTH 7 0
BBX 7 1 0 1
BITMAP
fe
ENDCHAR
STARTCHAR C024
ENCODING 20
SWIDTH 516 0
DWIDTH 7 0
BBX 7 1 0 -2
BITMAP
fe
ENDCHAR
STARTCHAR C025
ENCODING 21
SWIDTH 516 0
DWIDTH 7 0
BBX 4 14 3 -2
BITMAP
80
80
80
80
80
80
80
f0
80
80
80
80
80
80
ENDCHAR
STARTCHAR C026
ENCODING 22
SWIDTH 516 0
DWIDTH 7 0
BBX 4 14 0 -2
BITMAP
10
10
10
10
10
10
10
f0
10
10
10
10
10
10
ENDCHAR
STARTCHAR C027
ENCODING 23
SWIDTH 516 0
DWIDTH 7 0
BBX 7 8 0 4
BITMAP
10
10
10
10
10
10
10
fe
ENDCHAR
STARTCHAR C030
ENCODING 24
SWIDTH 516 0
DWIDTH 7 0
BBX 7 7 0 -2
BITMAP
fe
10
10
10
10
10
10
ENDCHAR
STARTCHAR C031
ENCODING 25
SWIDTH 516 0
DWIDTH 7 0
BBX 1 14 3 -2
BITMAP
80
80
80
80
80
80
80
80
80
80
80
80
80
80
ENDCHAR
STARTCHAR C032
ENCODING 26
SWIDTH 516 0
DWIDTH 7 0
BBX 6 7 0 1
BITMAP
0c
30
c0
30
0c
00
fc
ENDCHAR
STARTCHAR C033
ENCODING 27
SWIDTH 516 0
DWIDTH 7 0
BBX 6 7 0 1
BITMAP
c0
30
0c
30
c0
00
fc
ENDCHAR
STARTCHAR C034
ENCODING 28
SWIDTH 516 0
DWIDTH 7 0
BBX 6 7 0 0
BITMAP
fc
48
48
48
48
48
48
ENDCHAR
STARTCHAR C035
ENCODING 29
SWIDTH 516 0
DWIDTH 7 0
BBX 6 8 0 1
BITMAP
08
08
fc
10
10
fc
20
20
ENDCHAR
STARTCHAR C036
ENCODING 30
SWIDTH 516 0
DWIDTH 7 0
BBX 5 9 1 0
BITMAP
30
48
40
40
f0
40
40
f0
48
ENDCHAR
STARTCHAR C037
ENCODING 31
SWIDTH 516 0
DWIDTH 7 0
BBX 1 1 3 5
BITMAP
80
ENDCHAR
STARTCHAR space
ENCODING 32
SWIDTH 516 0
DWIDTH 7 0
BBX 0 0 0 0
BITMAP
ENDCHAR
STARTCHAR exclam
ENCODING 33
SWIDTH 516 0
DWIDTH 7 0
BBX 1 10 3 0
BITMAP
80
80
80
80
80
80
80
00
80
80
ENDCHAR
STARTCHAR quotedbl
ENCODING 34
SWIDTH 516 0
DWIDTH 7 0
BBX 3 4 2 7
BITMAP
a0
a0
a0
a0
ENDCHAR
STARTCHAR numbersign
ENCODING 35
SWIDTH 516 0
DWIDTH 7 0
BBX 5 10 1 0
BITMAP
50
50
50
f8
50
50
f8
50
50
50
ENDCHAR
STARTCHAR dollar
ENCODING 36
SWIDTH 516 0
DWIDTH 7 0
BBX 6 11 0 -1
BITMAP
10
78
94
94
50
38
14
94
94
78
10
ENDCHAR
STARTCHAR percent
ENCODING 37
SWIDTH 516 0
DWIDTH 7 0
BBX 6 10 0 0
BITMAP
64
94
98
70
10
20
38
64
a4
98
ENDCHAR
STARTCHAR ampersand
ENCODING 38
SWIDTH 516 0
DWIDTH 7 0
BBX 6 10 0 0
BITMAP
30
48
48
48
30
64
94
88
98
64
ENDCHAR
STARTCHAR apostrophe
ENCODING 39
SWIDTH 516 0
DWIDTH 7 0
BBX 1 4 3 7
BITMAP
80
80
80
80
ENDCHAR
STARTCHAR parenleft
ENCODING 40
SWIDTH 516 0
DWIDTH 7 0
BBX 4 13 2 -2
BITMAP
10
20
40
40
80
80
80
80
80
40
40
20
10
ENDCHAR
STARTCHAR parenright
ENCODING 41
SWIDTH 516 0
DWIDTH 7 0
BBX 4 13 1 -2
BITMAP
80
40
20
20
10
10
10
10
10
20
20
40
80
ENDCHAR
STARTCHAR asterisk
ENCODING 42
SWIDTH 516 0
DWIDTH 7 0
BBX 5 7 1 1
BITMAP
20
a8
70
20
70
a8
20
ENDCHAR
STARTCHAR plus
ENCODING 43
SWIDTH 516 0
DWIDTH 7 0
BBX 5 7 1 1
BITMAP
20
20
20
f8
20
20
20
ENDCHAR
STARTCHAR comma
ENCODING 44
SWIDTH 516 0
DWIDTH 7 0
BBX 2 4 2 -2
BITMAP
c0
40
40
80
ENDCHAR
STARTCHAR minus
ENCODING 45
SWIDTH 516 0
DWIDTH 7 0
BBX 5 1 1 4
BITMAP
f8
ENDCHAR
STARTCHAR period
ENCODING 46
SWIDTH 516 0
DWIDTH 7 0
BBX 3 3 2 -1
BITMAP
40
e0
40
ENDCHAR
STARTCHAR slash
ENCODING 47
SWIDTH 516 0
DWIDTH 7 0
BBX 6 13 0 -2
BITMAP
04
04
08
08
10
10
10
20
20
40
40
80
80
ENDCHAR
STARTCHAR 0
ENCODING 48
SWIDTH 516 0
DWIDTH 7 0
BBX 6 10 0 0
BITMAP
30
48
84
84
84
84
84
84
48
30
ENDCHAR
STARTCHAR 1
ENCODING 49
SWIDTH 516 0
DWIDTH 7 0
BBX 5 10 1 0
BITMAP
20
60
a0
20
20
20
20
20
20
f8
ENDCHAR
STARTCHAR 2
ENCODING 50
SWIDTH 516 0
DWIDTH 7 0
BBX 6 10 0 0
BITMAP
78
84
84
04
08
08
10
20
40
fc
ENDCHAR
STARTCHAR 3
ENCODING 51
SWIDTH 516 0
DWIDTH 7 0
BBX 6 10 0 0
BITMAP
fc
04
08
10
38
04
04
84
84
78
ENDCHAR
STARTCHAR 4
ENCODING 52
SWIDTH 516 0
DWIDTH 7 0
BBX 6 10 0 0
BITMAP
08
18
28
28
48
48
88
fc
08
08
ENDCHAR
STARTCHAR 5
ENCODING 53
SWIDTH 516 0
DWIDTH 7 0
BBX 6 10 0 0
BITMAP
fc
80
80
f8
84
04
04
84
84
78
ENDCHAR
STARTCHAR 6
ENCODING 54
SWIDTH 516 0
DWIDTH 7 0
BBX 6 10 0 0
BITMAP
38
40
80
80
b8
c4
84
84
84
78
ENDCHAR
STARTCHAR 7
ENCODING 55
SWIDTH 516 0
DWIDTH 7 0
BBX 6 10 0 0
BITMAP
fc
04
08
08
10
10
20
20
40
40
ENDCHAR
STARTCHAR 8
ENCODING 56
SWIDTH 516 0
DWIDTH 7 0
BBX 6 10 0 0
BITMAP
78
84
84
48
30
48
84
84
84
78
ENDCHAR
STARTCHAR 9
ENCODING 57
SWIDTH 516 0
DWIDTH 7 0
BBX 6 10 0 0
BITMAP
78
84
84
84
8c
74
04
84
88
70
ENDCHAR
STARTCHAR colon
ENCODING 58
SWIDTH 516 0
DWIDTH 7 0
BBX 3 8 2 0
BITMAP
40
e0
40
00
00
40
e0
40
ENDCHAR
STARTCHAR semicolon
ENCODING 59
SWIDTH 516 0
DWIDTH 7 0
BBX 2 8 2 -1
BITMAP
c0
c0
00
00
c0
40
40
80
ENDCHAR
STARTCHAR less
ENCODING 60
SWIDTH 516 0
DWIDTH 7 0
BBX 5 9 1 0
BITMAP
08
10
20
40
80
40
20
10
08
ENDCHAR
STARTCHAR equal
ENCODING 61
SWIDTH 516 0
DWIDTH 7 0
BBX 6 4 0 3
BITMAP
fc
00
00
fc
ENDCHAR
STARTCHAR greater
ENCODING 62
SWIDTH 516 0
DWIDTH 7 0
BBX 5 9 1 0
BITMAP
80
40
20
10
08
10
20
40
80
ENDCHAR
STARTCHAR question
ENCODING 63
SWIDTH 516 0
DWIDTH 7 0
BBX 6 10 0 0
BITMAP
78
84
84
08
10
10
10
00
10
10
ENDCHAR
STARTCHAR at
ENCODING 64
SWIDTH 516 0
DWIDTH 7 0
BBX 6 10 0 0
BITMAP
38
44
9c
a4
a4
a4
a4
9c
40
3c
ENDCHAR
STARTCHAR A
ENCODING 65
SWIDTH 516 0
DWIDTH 7 0
BBX 6 10 0 0
BITMAP
30
48
84
84
84
fc
84
84
84
84
ENDCHAR
STARTCHAR B
ENCODING 66
SWIDTH 516 0
DWIDTH 7 0
BBX 6 10 0 0
BITMAP
f0
88
84
88
f0
88
84
84
88
f0
ENDCHAR
STARTCHAR C
ENCODING 67
SWIDTH 516 0
DWIDTH 7 0
BBX 6 10 0 0
BITMAP
78
84
84
80
80
80
80
84
84
78
ENDCHAR
STARTCHAR D
ENCODING 68
SWIDTH 516 0
DWIDTH 7 0
BBX 6 10 0 0
BITMAP
f0
88
84
84
84
84
84
84
88
f0
ENDCHAR
STARTCHAR E
ENCODING 69
SWIDTH 516 0
DWIDTH 7 0
BBX 6 10 0 0
BITMAP
fc
80
80
80
f0
80
80
80
80
fc
ENDCHAR
STARTCHAR F
ENCODING 70
SWIDTH 516 0
DWIDTH 7 0
BBX 6 10 0 0
BITMAP
fc
80
80
80
f0
80
80
80
80
80
ENDCHAR
STARTCHAR G
ENCODING 71
SWIDTH 516 0
DWIDTH 7 0
BBX 6 10 0 0
BITMAP
78
84
84
80
80
9c
84
84
8c
74
ENDCHAR
STARTCHAR H
ENCODING 72
SWIDTH 516 0
DWIDTH 7 0
BBX 6 10 0 0
BITMAP
84
84
84
84
fc
84
84
84
84
84
ENDCHAR
STARTCHAR I
ENCODING 73
SWIDTH 516 0
DWIDTH 7 0
BBX 5 10 1 0
BITMAP
f8
20
20
20
20
20
20
20
20
f8
ENDCHAR
STARTCHAR J
ENCODING 74
SWIDTH 516 0
DWIDTH 7 0
BBX 6 10 0 0
BITMAP
1c
08
08
08
08
08
08
88
88
70
ENDCHAR
STARTCHAR K
ENCODING 75
SWIDTH 516 0
DWIDTH 7 0
BBX 6 10 0 0
BITMAP
84
88
90
a0
c0
a0
90
88
84
84
ENDCHAR
STARTCHAR L
ENCODING 76
SWIDTH 516 0
DWIDTH 7 0
BBX 6 10 0 0
BITMAP
80
80
80
80
80
80
80
80
80
fc
ENDCHAR
STARTCHAR M
ENCODING 77
SWIDTH 516 0
DWIDTH 7 0
BBX 6 10 0 0
BITMAP
84
cc
cc
b4
b4
84
84
84
84
84
ENDCHAR
STARTCHAR N
ENCODING 78
SWIDTH 516 0
DWIDTH 7 0
BBX 6 10 0 0
BITMAP
84
84
c4
c4
a4
94
8c
8c
84
84
ENDCHAR
STARTCHAR O
ENCODING 79
SWIDTH 516 0
DWIDTH 7 0
BBX 6 10 0 0
BITMAP
78
84
84
84
84
84
84
84
84
78
ENDCHAR
STARTCHAR P
ENCODING 80
SWIDTH 516 0
DWIDTH 7 0
BBX 6 10 0 0
BITMAP
f8
84
84
84
84
f8
80
80
80
80
ENDCHAR
STARTCHAR Q
ENCODING 81
SWIDTH 516 0
DWIDTH 7 0
BBX 6 12 0 -2
BITMAP
78
84
84
84
84
84
e4
94
8c
78
08
04
ENDCHAR
STARTCHAR R
ENCODING 82
SWIDTH 516 0
DWIDTH 7 0
BBX 6 10 0 0
BITMAP
f8
84
84
84
84
f8
90
88
84
84
ENDCHAR
STARTCHAR S
ENCODING 83
SWIDTH 516 0
DWIDTH 7 0
BBX 6 10 0 0
BITMAP
78
84
84
80
60
18
04
84
84
78
ENDCHAR
STARTCHAR T
ENCODING 84
SWIDTH 516 0
DWIDTH 7 0
BBX 7 10 0 0
BITMAP
fe
10
10
10
10
10
10
10
10
10
ENDCHAR
STARTCHAR U
ENCODING 85
SWIDTH 516 0
DWIDTH 7 0
BBX 6 10 0 0
BITMAP
84
84
84
84
84
84
84
84
84
78
ENDCHAR
STARTCHAR V
ENCODING 86
SWIDTH 516 0
DWIDTH 7 0
BBX 6 10 0 0
BITMAP
84
84
84
84
48
48
48
30
30
30
ENDCHAR
STARTCHAR W
ENCODING 87
SWIDTH 516 0
DWIDTH 7 0
BBX 5 10 1 0
BITMAP
88
88
88
88
88
88
a8
a8
a8
50
ENDCHAR
STARTCHAR X
ENCODING 88
SWIDTH 516 0
DWIDTH 7 0
BBX 6 10 0 0
BITMAP
84
84
48
48
30
30
48
48
84
84
ENDCHAR
STARTCHAR Y
ENCODING 89
SWIDTH 516 0
DWIDTH 7 0
BBX 5 10 1 0
BITMAP
88
88
88
50
50
20
20
20
20
20
ENDCHAR
STARTCHAR Z
ENCODING 90
SWIDTH 516 0
DWIDTH 7 0
BBX 6 10 0 0
BITMAP
fc
04
08
10
10
20
40
40
80
fc
ENDCHAR
STARTCHAR bracketleft
ENCODING 91
SWIDTH 516 0
DWIDTH 7 0
BBX 4 13 2 -2
BITMAP
f0
80
80
80
80
80
80
80
80
80
80
80
f0
ENDCHAR
STARTCHAR backslash
ENCODING 92
SWIDTH 516 0
DWIDTH 7 0
BBX 6 13 0 -2
BITMAP
80
80
40
40
20
20
20
10
10
08
08
04
04
ENDCHAR
STARTCHAR bracketright
ENCODING 93
SWIDTH 516 0
DWIDTH 7 0
BBX 4 13 1 -2
BITMAP
f0
10
10
10
10
10
10
10
10
10
10
10
f0
ENDCHAR
STARTCHAR asciicircum
ENCODING 94
SWIDTH 516 0
DWIDTH 7 0
BBX 6 3 0 8
BITMAP
30
48
84
ENDCHAR
STARTCHAR underscore
ENCODING 95
SWIDTH 516 0
DWIDTH 7 0
BBX 6 1 0 -2
BITMAP
fc
ENDCHAR
STARTCHAR grave
ENCODING 96
SWIDTH 516 0
DWIDTH 7 0
BBX 3 3 2 8
BITMAP
80
40
20
ENDCHAR
STARTCHAR a
ENCODING 97
SWIDTH 516 0
DWIDTH 7 0
BBX 6 7 0 0
BITMAP
78
84
04
7c
84
84
7c
ENDCHAR
STARTCHAR b
ENCODING 98
SWIDTH 516 0
DWIDTH 7 0
BBX 6 10 0 0
BITMAP
80
80
80
b8
c4
84
84
84
c4
b8
ENDCHAR
STARTCHAR c
ENCODING 99
SWIDTH 516 0
DWIDTH 7 0
BBX 6 7 0 0
BITMAP
78
84
80
80
80
84
78
ENDCHAR
STARTCHAR d
ENCODING 100
SWIDTH 516 0
DWIDTH 7 0
BBX 6 10 0 0
BITMAP
04
04
04
74
8c
84
84
84
8c
74
ENDCHAR
STARTCHAR e
ENCODING 101
SWIDTH 516 0
DWIDTH 7 0
BBX 6 7 0 0
BITMAP
78
84
84
fc
80
84
78
ENDCHAR
STARTCHAR f
ENCODING 102
SWIDTH 516 0
DWIDTH 7 0
BBX 6 10 0 0
BITMAP
18
24
20
20
f8
20
20
20
20
20
ENDCHAR
STARTCHAR g
ENCODING 103
SWIDTH 516 0
DWIDTH 7 0
BBX 6 9 0 -2
BITMAP
74
88
88
88
70
40
b8
84
78
ENDCHAR
STARTCHAR h
ENCODING 104
SWIDTH 516 0
DWIDTH 7 0
BBX 6 10 0 0
BITMAP
80
80
80
b8
c4
84
84
84
84
84
ENDCHAR
STARTCHAR i
ENCODING 105
SWIDTH 516 0
DWIDTH 7 0
BBX 5 10 1 0
BITMAP
20
20
00
60
20
20
20
20
20
f8
ENDCHAR
STARTCHAR j
ENCODING 106
SWIDTH 516 0
DWIDTH 7 0
BBX 5 12 1 -2
BITMAP
08
08
00
18
08
08
08
08
08
88
88
70
ENDCHAR
STARTCHAR k
ENCODING 107
SWIDTH 516 0
DWIDTH 7 0
BBX 6 10 0 0
BITMAP
80
80
80
88
90
a0
e0
90
88
84
ENDCHAR
STARTCHAR l
ENCODING 108
SWIDTH 516 0
DWIDTH 7 0
BBX 5 10 1 0
BITMAP
60
20
20
20
20
20
20
20
20
f8
ENDCHAR
STARTCHAR m
ENCODING 109
SWIDTH 516 0
DWIDTH 7 0
BBX 5 7 1 0
BITMAP
d0
a8
a8
a8
a8
a8
88
ENDCHAR
STARTCHAR n
ENCODING 110
SWIDTH 516 0
DWIDTH 7 0
BBX 6 7 0 0
BITMAP
b8
c4
84
84
84
84
84
ENDCHAR
STARTCHAR o
ENCODING 111
SWIDTH 516 0
DWIDTH 7 0
BBX 6 7 0 0
BITMAP
78
84
84
84
84
84
78
ENDCHAR
STARTCHAR p
ENCODING 112
SWIDTH 516 0
DWIDTH 7 0
BBX 6 9 0 -2
BITMAP
b8
c4
84
84
84
c4
b8
80
80
ENDCHAR
STARTCHAR q
ENCODING 113
SWIDTH 516 0
DWIDTH 7 0
BBX 6 9 0 -2
BITMAP
74
8c
84
84
84
8c
74
04
04
ENDCHAR
STARTCHAR r
ENCODING 114
SWIDTH 516 0
DWIDTH 7 0
BBX 6 7 0 0
BITMAP
b8
c4
84
80
80
80
80
ENDCHAR
STARTCHAR s
ENCODING 115
SWIDTH 516 0
DWIDTH 7 0
BBX 6 7 0 0
BITMAP
78
84
40
30
08
84
78
ENDCHAR
STARTCHAR t
ENCODING 116
SWIDTH 516 0
DWIDTH 7 0
BBX 6 10 0 0
BITMAP
20
20
20
f8
20
20
20
20
24
18
ENDCHAR
STARTCHAR u
ENCODING 117
SWIDTH 516 0
DWIDTH 7 0
BBX 6 7 0 0
BITMAP
84
84
84
84
84
8c
74
ENDCHAR
STARTCHAR v
ENCODING 118
SWIDTH 516 0
DWIDTH 7 0
BBX 5 7 1 0
BITMAP
88
88
88
50
50
20
20
ENDCHAR
STARTCHAR w
ENCODING 119
SWIDTH 516 0
DWIDTH 7 0
BBX 5 7 1 0
BITMAP
88
88
a8
a8
a8
a8
50
ENDCHAR
STARTCHAR x
ENCODING 120
SWIDTH 516 0
DWIDTH 7 0
BBX 6 7 0 0
BITMAP
84
84
48
30
48
84
84
ENDCHAR
STARTCHAR y
ENCODING 121
SWIDTH 516 0
DWIDTH 7 0
BBX 6 9 0 -2
BITMAP
84
84
84
84
8c
74
04
84
78
ENDCHAR
STARTCHAR z
ENCODING 122
SWIDTH 516 0
DWIDTH 7 0
BBX 6 7 0 0
BITMAP
fc
08
10
20
20
40
fc
ENDCHAR
STARTCHAR braceleft
ENCODING 123
SWIDTH 516 0
DWIDTH 7 0
BBX 4 13 2 -2
BITMAP
30
40
40
40
40
40
80
40
40
40
40
40
30
ENDCHAR
STARTCHAR bar
ENCODING 124
SWIDTH 516 0
DWIDTH 7 0
BBX 1 13 3 -2
BITMAP
80
80
80
80
80
80
80
80
80
80
80
80
80
ENDCHAR
STARTCHAR braceright
ENCODING 125
SWIDTH 516 0
DWIDTH 7 0
BBX 4 13 1 -2
BITMAP
c0
20
20
20
20
20
10
20
20
20
20
20
c0
ENDCHAR
STARTCHAR asciitilde
ENCODING 126
SWIDTH 516 0
DWIDTH 7 0
BBX 6 4 0 7
BITMAP
40
a4
94
08
ENDCHAR
STARTCHAR nobreakspace
ENCODING 160
SWIDTH 516 0
DWIDTH 7 0
BBX 0 0 0 0
BITMAP
ENDCHAR
STARTCHAR exclamdown
ENCODING 161
SWIDTH 516 0
DWIDTH 7 0
BBX 1 10 3 0
BITMAP
80
80
00
80
80
80
80
80
80
80
ENDCHAR
STARTCHAR cent
ENCODING 162
SWIDTH 516 0
DWIDTH 7 0
BBX 6 9 0 -1
BITMAP
20
78
a4
a0
a0
a0
a4
78
20
ENDCHAR
STARTCHAR sterling
ENCODING 163
SWIDTH 516 0
DWIDTH 7 0
BBX 5 9 1 0
BITMAP
30
48
40
40
f0
40
40
f0
48
ENDCHAR
STARTCHAR currency
ENCODING 164
SWIDTH 516 0
DWIDTH 7 0
BBX 6 6 0 2
BITMAP
84
78
48
48
78
84
ENDCHAR
STARTCHAR yen
ENCODING 165
SWIDTH 516 0
DWIDTH 7 0
BBX 5 10 1 0
BITMAP
88
50
50
20
f8
20
f8
20
20
20
ENDCHAR
STARTCHAR brokenbar
ENCODING 166
SWIDTH 516 0
DWIDTH 7 0
BBX 1 10 3 0
BITMAP
80
80
80
80
00
00
80
80
80
80
ENDCHAR
STARTCHAR section
ENCODING 167
SWIDTH 516 0
DWIDTH 7 0
BBX 6 11 0 0
BITMAP
78
84
40
30
48
84
48
30
08
84
78
ENDCHAR
STARTCHAR diaeresis
ENCODING 168
SWIDTH 516 0
DWIDTH 7 0
BBX 4 2 1 9
BITMAP
90
90
ENDCHAR
STARTCHAR copyright
ENCODING 169
SWIDTH 516 0
DWIDTH 7 0
BBX 6 11 0 0
BITMAP
78
84
b4
cc
c4
c4
c4
cc
b4
84
78
ENDCHAR
STARTCHAR ordfeminine
ENCODING 170
SWIDTH 516 0
DWIDTH 7 0
BBX 5 8 1 3
BITMAP
70
88
78
88
98
68
00
f8
ENDCHAR
STARTCHAR guillemotleft
ENCODING 171
SWIDTH 516 0
DWIDTH 7 0
BBX 6 7 0 0
BITMAP
14
28
50
a0
50
28
14
ENDCHAR
STARTCHAR notsign
ENCODING 172
SWIDTH 516 0
DWIDTH 7 0
BBX 5 4 1 0
BITMAP
f8
08
08
08
ENDCHAR
STARTCHAR hyphen
ENCODING 173
SWIDTH 516 0
DWIDTH 7 0
BBX 4 1 1 4
BITMAP
f0
ENDCHAR
STARTCHAR registered
ENCODING 174
SWIDTH 516 0
DWIDTH 7 0
BBX 6 11 0 0
BITMAP
78
84
f4
cc
cc
f4
cc
cc
cc
84
78
ENDCHAR
STARTCHAR macron
ENCODING 175
SWIDTH 516 0
DWIDTH 7 0
BBX 5 1 1 9
BITMAP
f8
ENDCHAR
STARTCHAR degree
ENCODING 176
SWIDTH 516 0
DWIDTH 7 0
BBX 4 4 1 7
BITMAP
60
90
90
60
ENDCHAR
STARTCHAR plusminus
ENCODING 177
SWIDTH 516 0
DWIDTH 7 0
BBX 5 6 1 0
BITMAP
20
20
f8
20
20
f8
ENDCHAR
STARTCHAR twosuperior
ENCODING 178
SWIDTH 516 0
DWIDTH 7 0
BBX 4 7 1 4
BITMAP
60
90
10
20
40
80
f0
ENDCHAR
STARTCHAR threesuperior
ENCODING 179
SWIDTH 516 0
DWIDTH 7 0
BBX 4 7 1 4
BITMAP
60
90
10
60
10
90
60
ENDCHAR
STARTCHAR acute
ENCODING 180
SWIDTH 516 0
DWIDTH 7 0
BBX 3 3 2 8
BITMAP
20
40
80
ENDCHAR
STARTCHAR mu
ENCODING 181
SWIDTH 516 0
DWIDTH 7 0
BBX 5 8 1 -2
BITMAP
88
88
88
88
d8
a8
80
80
ENDCHAR
STARTCHAR paragraph
ENCODING 182
SWIDTH 516 0
DWIDTH 7 0
BBX 5 12 1 -2
BITMAP
78
a8
a8
a8
a8
68
28
28
28
28
28
38
ENDCHAR
STARTCHAR periodcentered
ENCODING 183
SWIDTH 516 0
DWIDTH 7 0
BBX 1 1 3 5
BITMAP
80
ENDCHAR
STARTCHAR cedilla
ENCODING 184
SWIDTH 516 0
DWIDTH 7 0
BBX 2 3 2 -2
BITMAP
40
40
80
ENDCHAR
STARTCHAR onesuperior
ENCODING 185
SWIDTH 516 0
DWIDTH 7 0
BBX 3 7 2 4
BITMAP
40
c0
40
40
40
40
e0
ENDCHAR
STARTCHAR masculine
ENCODING 186
SWIDTH 516 0
DWIDTH 7 0
BBX 4 6 1 4
BITMAP
60
90
90
60
00
f0
ENDCHAR
STARTCHAR guillemotright
ENCODING 187
SWIDTH 516 0
DWIDTH 7 0
BBX 6 7 0 0
BITMAP
a0
50
28
14
28
50
a0
ENDCHAR
STARTCHAR onequarter
ENCODING 188
SWIDTH 516 0
DWIDTH 7 0
BBX 6 10 0 0
BITMAP
40
c4
48
48
50
24
2c
54
9c
84
ENDCHAR
STARTCHAR onehalf
ENCODING 189
SWIDTH 516 0
DWIDTH 7 0
BBX 6 10 0 0
BITMAP
40
c4
48
48
50
28
34
44
88
9c
ENDCHAR
STARTCHAR threequarters
ENCODING 190
SWIDTH 516 0
DWIDTH 7 0
BBX 6 10 0 0
BITMAP
c4
24
48
30
d0
24
4c
54
9c
04
ENDCHAR
STARTCHAR questiondown
ENCODING 191
SWIDTH 516 0
DWIDTH 7 0
BBX 6 11 0 -2
BITMAP
20
20
00
20
20
20
20
40
84
84
78
ENDCHAR
STARTCHAR Agrave
ENCODING 192
SWIDTH 516 0
DWIDTH 7 0
BBX 6 12 0 0
BITMAP
20
10
00
30
48
84
84
fc
84
84
84
84
ENDCHAR
STARTCHAR Aacute
ENCODING 193
SWIDTH 516 0
DWIDTH 7 0
BBX 6 12 0 0
BITMAP
10
20
00
30
48
84
84
fc
84
84
84
84
ENDCHAR
STARTCHAR Acircumflex
ENCODING 194
SWIDTH 516 0
DWIDTH 7 0
BBX 6 12 0 0
BITMAP
30
48
00
30
48
84
84
fc
84
84
84
84
ENDCHAR
STARTCHAR Atilde
ENCODING 195
SWIDTH 516 0
DWIDTH 7 0
BBX 6 12 0 0
BITMAP
64
98
00
30
48
84
84
fc
84
84
84
84
ENDCHAR
STARTCHAR Adiaeresis
ENCODING 196
SWIDTH 516 0
DWIDTH 7 0
BBX 6 11 0 0
BITMAP
48
00
30
48
84
84
fc
84
84
84
84
ENDCHAR
STARTCHAR Aring
ENCODING 197
SWIDTH 516 0
DWIDTH 7 0
BBX 6 11 0 0
BITMAP
30
48
30
48
84
84
fc
84
84
84
84
ENDCHAR
STARTCHAR AE
ENCODING 198
SWIDTH 516 0
DWIDTH 7 0
BBX 6 10 0 0
BITMAP
3c
50
90
90
fc
90
90
90
90
9c
ENDCHAR
STARTCHAR Ccedilla
ENCODING 199
SWIDTH 516 0
DWIDTH 7 0
BBX 6 12 0 -2
BITMAP
78
84
84
80
80
80
80
84
84
78
10
20
ENDCHAR
STARTCHAR Egrave
ENCODING 200
SWIDTH 516 0
DWIDTH 7 0
BBX 6 12 0 0
BITMAP
20
10
00
fc
80
80
80
f8
80
80
80
fc
ENDCHAR
STARTCHAR Eacute
ENCODING 201
SWIDTH 516 0
DWIDTH 7 0
BBX 6 12 0 0
BITMAP
10
20
00
fc
80
80
80
f8
80
80
80
fc
ENDCHAR
STARTCHAR Ecircumflex
ENCODING 202
SWIDTH 516 0
DWIDTH 7 0
BBX 6 12 0 0
BITMAP
30
48
00
fc
80
80
80
f8
80
80
80
fc
ENDCHAR
STARTCHAR Ediaeresis
ENCODING 203
SWIDTH 516 0
DWIDTH 7 0
BBX 6 11 0 0
BITMAP
48
00
fc
80
80
80
f8
80
80
80
fc
ENDCHAR
STARTCHAR Igrave
ENCODING 204
SWIDTH 516 0
DWIDTH 7 0
BBX 5 12 1 0
BITMAP
40
20
00
f8
20
20
20
20
20
20
20
f8
ENDCHAR
STARTCHAR Iacute
ENCODING 205
SWIDTH 516 0
DWIDTH 7 0
BBX 5 12 1 0
BITMAP
10
20
00
f8
20
20
20
20
20
20
20
f8
ENDCHAR
STARTCHAR Icircumflex
ENCODING 206
SWIDTH 516 0
DWIDTH 7 0
BBX 5 12 1 0
BITMAP
20
50
00
f8
20
20
20
20
20
20
20
f8
ENDCHAR
STARTCHAR Idiaeresis
ENCODING 207
SWIDTH 516 0
DWIDTH 7 0
BBX 5 11 1 0
BITMAP
50
00
f8
20
20
20
20
20
20
20
f8
ENDCHAR
STARTCHAR ETH
ENCODING 208
SWIDTH 516 0
DWIDTH 7 0
BBX 7 10 0 0
BITMAP
78
44
42
42
f2
42
42
42
44
78
ENDCHAR
STARTCHAR Ntilde
ENCODING 209
SWIDTH 516 0
DWIDTH 7 0
BBX 6 12 0 0
BITMAP
64
98
00
c4
c4
a4
a4
94
94
94
8c
8c
ENDCHAR
STARTCHAR Ograve
ENCODING 210
SWIDTH 516 0
DWIDTH 7 0
BBX 6 12 0 0
BITMAP
20
10
00
78
84
84
84
84
84
84
84
78
ENDCHAR
STARTCHAR Oacute
ENCODING 211
SWIDTH 516 0
DWIDTH 7 0
BBX 6 12 0 0
BITMAP
10
20
00
78
84
84
84
84
84
84
84
78
ENDCHAR
STARTCHAR Ocircumflex
ENCODING 212
SWIDTH 516 0
DWIDTH 7 0
BBX 6 12 0 0
BITMAP
30
48
00
78
84
84
84
84
84
84
84
78
ENDCHAR
STARTCHAR Otilde
ENCODING 213
SWIDTH 516 0
DWIDTH 7 0
BBX 6 12 0 0
BITMAP
64
98
00
78
84
84
84
84
84
84
84
78
ENDCHAR
STARTCHAR Odiaeresis
ENCODING 214
SWIDTH 516 0
DWIDTH 7 0
BBX 6 11 0 0
BITMAP
48
00
78
84
84
84
84
84
84
84
78
ENDCHAR
STARTCHAR multiply
ENCODING 215
SWIDTH 516 0
DWIDTH 7 0
BBX 7 7 0 0
BITMAP
82
44
28
10
28
44
82
ENDCHAR
STARTCHAR Ooblique
ENCODING 216
SWIDTH 516 0
DWIDTH 7 0
BBX 6 14 0 -2
BITMAP
04
04
78
8c
94
94
94
a4
a4
a4
c4
78
80
80
ENDCHAR
STARTCHAR Ugrave
ENCODING 217
SWIDTH 516 0
DWIDTH 7 0
BBX 6 12 0 0
BITMAP
20
10
00
84
84
84
84
84
84
84
84
78
ENDCHAR
STARTCHAR Uacute
ENCODING 218
SWIDTH 516 0
DWIDTH 7 0
BBX 6 12 0 0
BITMAP
10
20
00
84
84
84
84
84
84
84
84
78
ENDCHAR
STARTCHAR Ucircumflex
ENCODING 219
SWIDTH 516 0
DWIDTH 7 0
BBX 6 12 0 0
BITMAP
30
48
00
84
84
84
84
84
84
84
84
78
ENDCHAR
STARTCHAR Udiaeresis
ENCODING 220
SWIDTH 516 0
DWIDTH 7 0
BBX 6 11 0 0
BITMAP
48
00
84
84
84
84
84
84
84
84
78
ENDCHAR
STARTCHAR Yacute
ENCODING 221
SWIDTH 516 0
DWIDTH 7 0
BBX 5 12 1 0
BITMAP
10
20
00
88
88
50
50
20
20
20
20
20
ENDCHAR
STARTCHAR THORN
ENCODING 222
SWIDTH 516 0
DWIDTH 7 0
BBX 6 10 0 0
BITMAP
80
80
f8
84
84
84
84
f8
80
80
ENDCHAR
STARTCHAR ssharp
ENCODING 223
SWIDTH 516 0
DWIDTH 7 0
BBX 6 10 0 0
BITMAP
30
48
48
48
70
48
44
44
44
f8
ENDCHAR
STARTCHAR agrave
ENCODING 224
SWIDTH 516 0
DWIDTH 7 0
BBX 6 10 0 0
BITMAP
20
10
00
78
84
1c
64
84
8c
74
ENDCHAR
STARTCHAR aacute
ENCODING 225
SWIDTH 516 0
DWIDTH 7 0
BBX 6 10 0 0
BITMAP
08
10
00
78
84
1c
64
84
8c
74
ENDCHAR
STARTCHAR acircumflex
ENCODING 226
SWIDTH 516 0
DWIDTH 7 0
BBX 6 10 0 0
BITMAP
30
48
00
78
84
1c
64
84
8c
74
ENDCHAR
STARTCHAR atilde
ENCODING 227
SWIDTH 516 0
DWIDTH 7 0
BBX 6 10 0 0
BITMAP
64
98
00
78
84
1c
64
84
8c
74
ENDCHAR
STARTCHAR adiaeresis
ENCODING 228
SWIDTH 516 0
DWIDTH 7 0
BBX 6 9 0 0
BITMAP
48
00
78
84
1c
64
84
8c
74
ENDCHAR
STARTCHAR aring
ENCODING 229
SWIDTH 516 0
DWIDTH 7 0
BBX 6 11 0 0
BITMAP
30
48
30
00
78
84
1c
64
84
8c
74
ENDCHAR
STARTCHAR ae
ENCODING 230
SWIDTH 516 0
DWIDTH 7 0
BBX 7 7 0 0
BITMAP
7c
92
32
5e
90
92
7c
ENDCHAR
STARTCHAR ccedilla
ENCODING 231
SWIDTH 516 0
DWIDTH 7 0
BBX 6 9 0 -2
BITMAP
78
84
80
80
80
84
78
10
20
ENDCHAR
STARTCHAR egrave
ENCODING 232
SWIDTH 516 0
DWIDTH 7 0
BBX 6 10 0 0
BITMAP
20
10
00
78
84
84
fc
80
84
78
ENDCHAR
STARTCHAR eacute
ENCODING 233
SWIDTH 516 0
DWIDTH 7 0
BBX 6 10 0 0
BITMAP
10
20
00
78
84
84
fc
80
84
78
ENDCHAR
STARTCHAR ecircumflex
ENCODING 234
SWIDTH 516 0
DWIDTH 7 0
BBX 6 10 0 0
BITMAP
30
48
00
78
84
84
fc
80
84
78
ENDCHAR
STARTCHAR ediaeresis
ENCODING 235
SWIDTH 516 0
DWIDTH 7 0
BBX 6 9 0 0
BITMAP
48
00
78
84
84
fc
80
84
78
ENDCHAR
STARTCHAR igrave
ENCODING 236
SWIDTH 516 0
DWIDTH 7 0
BBX 5 10 1 0
BITMAP
40
20
00
60
20
20
20
20
20
f8
ENDCHAR
STARTCHAR iacute
ENCODING 237
SWIDTH 516 0
DWIDTH 7 0
BBX 5 10 1 0
BITMAP
10
20
00
60
20
20
20
20
20
f8
ENDCHAR
STARTCHAR icircumflex
ENCODING 238
SWIDTH 516 0
DWIDTH 7 0
BBX 5 10 1 0
BITMAP
60
90
00
60
20
20
20
20
20
f8
ENDCHAR
STARTCHAR idiaeresis
ENCODING 239
SWIDTH 516 0
DWIDTH 7 0
BBX 5 9 1 0
BITMAP
50
00
60
20
20
20
20
20
f8
ENDCHAR
STARTCHAR eth
ENCODING 240
SWIDTH 516 0
DWIDTH 7 0
BBX 5 11 1 0
BITMAP
50
20
50
08
78
88
88
88
88
88
70
ENDCHAR
STARTCHAR ntilde
ENCODING 241
SWIDTH 516 0
DWIDTH 7 0
BBX 6 10 0 0
BITMAP
64
98
00
b8
c4
84
84
84
84
84
ENDCHAR
STARTCHAR ograve
ENCODING 242
SWIDTH 516 0
DWIDTH 7 0
BBX 6 10 0 0
BITMAP
20
10
00
78
84
84
84
84
84
78
ENDCHAR
STARTCHAR oacute
ENCODING 243
SWIDTH 516 0
DWIDTH 7 0
BBX 6 10 0 0
BITMAP
10
20
00
78
84
84
84
84
84
78
ENDCHAR
STARTCHAR ocircumflex
ENCODING 244
SWIDTH 516 0
DWIDTH 7 0
BBX 6 10 0 0
BITMAP
30
48
00
78
84
84
84
84
84
78
ENDCHAR
STARTCHAR otilde
ENCODING 245
SWIDTH 516 0
DWIDTH 7 0
BBX 6 10 0 0
BITMAP
64
98
00
78
84
84
84
84
84
78
ENDCHAR
STARTCHAR odiaeresis
ENCODING 246
SWIDTH 516 0
DWIDTH 7 0
BBX 6 9 0 0
BITMAP
48
00
78
84
84
84
84
84
78
ENDCHAR
STARTCHAR division
ENCODING 247
SWIDTH 516 0
DWIDTH 7 0
BBX 6 5 0 0
BITMAP
30
00
fc
00
30
ENDCHAR
STARTCHAR oslash
ENCODING 248
SWIDTH 516 0
DWIDTH 7 0
BBX 6 11 0 -2
BITMAP
04
08
78
94
94
a4
a4
c4
78
80
80
ENDCHAR
STARTCHAR ugrave
ENCODING 249
SWIDTH 516 0
DWIDTH 7 0
BBX 6 10 0 0
BITMAP
20
10
00
84
84
84
84
84
8c
74
ENDCHAR
STARTCHAR uacute
ENCODING 250
SWIDTH 516 0
DWIDTH 7 0
BBX 6 10 0 0
BITMAP
10
20
00
84
84
84
84
84
8c
74
ENDCHAR
STARTCHAR ucircumflex
ENCODING 251
SWIDTH 516 0
DWIDTH 7 0
BBX 6 10 0 0
BITMAP
30
48
00
84
84
84
84
84
8c
74
ENDCHAR
STARTCHAR udiaeresis
ENCODING 252
SWIDTH 516 0
DWIDTH 7 0
BBX 6 9 0 0
BITMAP
48
00
84
84
84
84
84
8c
74
ENDCHAR
STARTCHAR yacute
ENCODING 253
SWIDTH 516 0
DWIDTH 7 0
BBX 6 12 0 -2
BITMAP
10
20
00
84
84
44
48
28
38
10
90
60
ENDCHAR
STARTCHAR thorn
ENCODING 254
SWIDTH 516 0
DWIDTH 7 0
BBX 6 12 0 -2
BITMAP
80
80
80
b8
c4
84
84
84
c4
b8
80
80
ENDCHAR
STARTCHAR ydiaeresis
ENCODING 255
SWIDTH 516 0
DWIDTH 7 0
BBX 6 11 0 -2
BITMAP
48
00
84
84
44
48
28
38
10
90
60
ENDCHAR
ENDFONT
